<?xml version="1.0" standalone="no"?>
<!DOCTYPE svg PUBLIC "-//W3C//DTD SVG 20010904//EN"
 "http://www.w3.org/TR/2001/REC-SVG-20010904/DTD/svg10.dtd">
<svg version="1.0" xmlns="http://www.w3.org/2000/svg"
 width="1654.000000pt" height="2339.000000pt" viewBox="0 0 1654.000000 2339.000000"
 preserveAspectRatio="xMidYMid meet">
<metadata>
Created by potrace 1.16, written by Peter Selinger 2001-2019
</metadata>
<g transform="translate(0.000000,2339.000000) scale(0.100000,-0.100000)"
fill="#000000" stroke="none">
<path d="M7950 18925 c-30 -8 -112 -41 -181 -74 -69 -32 -181 -83 -250 -112
-68 -28 -157 -67 -197 -85 -41 -19 -75 -34 -77 -34 -24 0 -919 -436 -1165
-568 -244 -130 -659 -358 -840 -462 -139 -79 -261 -245 -343 -465 -38 -102
-94 -342 -112 -480 -22 -168 -37 -452 -33 -630 l3 -150 18 60 c89 290 101 321
188 505 118 248 245 400 398 477 71 37 78 38 175 38 91 -1 118 -6 266 -49 363
-106 520 -184 584 -287 22 -36 34 -159 15 -159 -7 0 -58 9 -112 21 -82 18
-103 19 -128 9 -45 -19 -59 -56 -59 -153 0 -71 -3 -87 -21 -106 -49 -53 -123
-55 -225 -6 -47 23 -87 35 -114 35 -37 0 -47 -6 -90 -50 -27 -28 -52 -60 -55
-70 -4 -11 -10 -20 -15 -20 -13 0 -23 -65 -16 -95 4 -15 28 -41 57 -61 27 -20
56 -49 64 -65 31 -59 8 -151 -45 -179 -12 -6 -49 -16 -83 -21 -130 -20 -143
-36 -134 -172 10 -169 39 -200 171 -183 72 9 77 8 115 -17 27 -18 44 -40 56
-71 22 -56 11 -95 -46 -163 -70 -86 -62 -131 37 -211 66 -54 120 -82 155 -82
26 0 83 44 105 80 34 57 117 76 183 42 49 -24 70 -58 82 -131 12 -79 32 -119
65 -131 64 -25 244 -1 281 36 22 22 23 30 21 124 l-3 101 37 34 c67 62 133 54
236 -30 66 -53 98 -49 171 23 72 71 111 128 111 164 0 27 -23 56 -87 109 -88
74 -95 167 -17 228 22 17 41 21 100 21 89 0 118 10 139 49 22 44 20 145 -5
196 -33 68 -88 98 -211 115 -101 14 -159 77 -144 156 4 24 23 54 56 89 57 60
61 86 24 145 -54 86 -136 136 -239 148 -33 4 -61 12 -63 18 -2 6 11 31 29 54
44 57 135 107 231 125 91 17 141 11 287 -38 58 -19 251 -83 431 -141 l325
-107 185 60 c101 33 224 72 274 88 49 15 89 32 88 37 -1 6 -19 17 -40 25 -225
91 -394 295 -444 534 -35 170 -18 310 56 472 56 121 184 258 306 329 119 69
297 105 429 87 179 -24 327 -98 447 -225 80 -84 129 -165 170 -281 25 -74 28
-91 27 -230 0 -136 -2 -157 -26 -222 -14 -40 -24 -74 -21 -77 5 -5 62 21 376
170 254 119 290 158 288 299 -3 202 -184 487 -531 836 -229 230 -391 335 -710
460 -102 39 -259 101 -350 136 -91 36 -176 68 -190 73 -14 4 -59 22 -100 39
-139 60 -233 72 -340 46z m270 -385 c298 -85 348 -260 107 -374 -99 -47 -176
-60 -357 -60 -184 -1 -257 12 -365 66 -246 122 -166 307 162 379 120 26 342
21 453 -11z m-1690 -845 c126 -27 235 -87 266 -146 50 -98 -18 -193 -182 -252
-196 -71 -511 -59 -678 24 -105 54 -154 122 -136 191 26 91 177 173 375 202
60 9 282 -3 355 -19z m-7 -1745 c73 -28 163 -113 200 -190 116 -242 -26 -522
-291 -570 -230 -41 -452 150 -452 389 1 285 277 473 543 371z"/>
<path d="M3717 11725 c-263 -44 -427 -196 -499 -460 -20 -73 -22 -104 -22
-365 -1 -265 1 -291 22 -370 76 -286 255 -435 567 -470 50 -5 262 -10 473 -10
l382 0 0 179 0 180 -417 3 c-478 4 -490 6 -572 83 -47 44 -87 126 -93 190 l-3
30 483 3 482 2 0 180 0 180 -484 0 -483 0 9 52 c18 98 64 162 149 208 57 30
71 33 198 41 75 4 270 8 434 9 l297 0 0 175 0 175 -422 -1 c-299 -1 -446 -5
-501 -14z"/>
<path d="M5405 11734 c-11 -3 -47 -9 -80 -16 -33 -6 -91 -25 -130 -41 -135
-58 -228 -149 -291 -282 -64 -136 -66 -159 -71 -782 l-5 -563 181 0 180 0 3
543 c3 538 3 542 26 598 29 73 77 123 149 157 49 23 74 28 165 30 218 7 334
-66 374 -237 11 -43 14 -178 14 -573 l0 -518 180 0 180 0 0 528 c0 573 -6 655
-55 780 -83 210 -255 337 -499 371 -74 10 -278 13 -321 5z"/>
<path d="M6520 10895 l0 -845 180 0 180 0 0 845 0 845 -180 0 -180 0 0 -845z"/>
<path d="M7650 11725 c-201 -37 -355 -146 -435 -309 -70 -144 -90 -288 -82
-596 5 -189 9 -226 32 -309 74 -272 239 -406 550 -451 39 -5 249 -10 468 -10
l397 0 0 515 0 515 -420 0 -420 0 0 -180 0 -180 240 0 240 0 0 -156 0 -156
-237 4 c-288 6 -319 13 -398 92 -83 83 -90 114 -90 396 0 221 1 238 23 291 28
70 80 125 148 156 74 34 223 44 589 42 165 -1 306 -1 313 0 9 1 12 43 12 176
l0 175 -427 -1 c-312 -1 -448 -4 -503 -14z"/>
<path d="M9175 11723 c-152 -32 -275 -120 -339 -242 -69 -132 -69 -128 -73
-813 l-4 -618 180 0 180 0 3 593 c3 560 4 594 22 627 43 80 106 110 228 110
126 0 203 -54 227 -160 7 -28 11 -259 11 -607 l0 -563 180 0 179 0 3 593 3
592 25 45 c36 65 108 100 204 100 127 0 190 -33 230 -120 20 -44 21 -60 24
-627 l3 -583 174 0 175 0 0 602 c0 401 -4 623 -11 667 -26 149 -118 282 -240
346 -99 52 -153 65 -305 72 -186 8 -307 -17 -418 -87 l-47 -30 -29 20 c-51 36
-143 72 -220 86 -98 17 -277 16 -365 -3z"/>
<path d="M11545 11729 c-215 -33 -379 -146 -462 -319 -75 -155 -75 -155 -80
-792 l-5 -568 181 0 181 0 0 179 c0 147 3 180 15 184 8 4 172 6 365 7 l350 0
0 -185 0 -185 180 0 180 0 0 528 c0 649 -8 713 -102 874 -76 129 -197 216
-358 258 -96 25 -339 36 -445 19z m367 -381 c94 -44 144 -109 167 -216 6 -29
11 -123 11 -208 l0 -154 -362 2 -363 3 -3 154 c-4 224 28 326 123 391 66 45
132 60 260 57 96 -2 117 -6 167 -29z"/>
<path d="M10720 9763 c-88 -32 -125 -84 -125 -178 0 -80 30 -134 91 -163 53
-26 86 -27 145 -7 69 25 79 39 79 112 l0 63 -70 0 c-63 0 -70 -2 -70 -20 0
-17 7 -20 50 -20 l50 0 0 -39 c0 -34 -4 -41 -34 -55 -73 -34 -167 -11 -191 48
-18 42 -18 108 -2 156 26 75 154 95 207 31 15 -17 32 -31 38 -31 15 0 15 0 1
38 -17 50 -111 86 -169 65z"/>
<path d="M3232 9588 c3 -155 5 -173 21 -176 16 -3 17 9 17 150 l1 153 34 -110
c18 -60 38 -129 44 -152 10 -35 16 -43 35 -43 21 0 27 11 60 128 21 70 41 138
46 152 5 16 9 -28 9 -127 1 -146 2 -153 21 -153 19 0 20 7 20 175 l0 175 -30
0 c-36 0 -40 -6 -80 -150 -18 -63 -36 -121 -40 -129 -5 -9 -15 13 -29 60 -64
217 -63 214 -99 217 l-32 3 2 -173z"/>
<path d="M5261 9741 c-12 -12 -21 -32 -21 -46 0 -18 -5 -25 -20 -25 -13 0 -20
-7 -20 -20 0 -13 7 -20 20 -20 19 0 20 -7 20 -110 0 -103 1 -110 20 -110 19 0
20 7 20 110 l0 110 25 0 c18 0 25 5 25 20 0 15 -7 20 -26 20 -21 0 -25 4 -22
23 2 16 11 23 31 25 20 3 27 8 25 20 -5 26 -53 27 -77 3z"/>
<path d="M7980 9586 l0 -176 84 0 c102 0 130 9 156 52 25 40 20 85 -11 111
-21 17 -21 18 -3 38 27 30 23 84 -8 116 -24 23 -35 26 -122 31 l-96 5 0 -177z
m192 117 c24 -22 24 -69 -1 -83 -11 -5 -49 -10 -85 -10 l-66 0 0 55 0 55 67 0
c48 0 72 -5 85 -17z m11 -147 c22 -17 22 -64 0 -88 -13 -14 -31 -18 -90 -18
l-73 0 0 60 0 60 73 0 c44 -1 79 -6 90 -14z"/>
<path d="M9967 9753 c-4 -3 -7 -30 -7 -60 l0 -54 -29 22 c-74 54 -169 -44
-146 -150 16 -74 91 -119 142 -86 24 16 27 16 35 1 5 -9 16 -16 23 -16 13 0
15 29 15 175 0 139 -3 175 -13 175 -8 0 -17 -3 -20 -7z m-27 -135 c18 -19 21
-32 18 -81 -3 -42 -10 -61 -24 -72 -27 -21 -71 -18 -94 5 -28 28 -28 117 0
148 27 29 73 29 100 0z"/>
<path d="M6508 9739 c-11 -6 -18 -22 -18 -39 0 -20 -5 -30 -15 -30 -8 0 -15
-9 -15 -20 0 -11 7 -20 15 -20 12 0 15 -16 15 -88 0 -98 14 -132 56 -132 17 0
24 5 24 20 0 13 -7 20 -20 20 -19 0 -20 7 -20 90 0 83 1 90 20 90 13 0 20 7
20 20 0 13 -7 20 -19 20 -16 0 -20 8 -23 39 -3 35 -5 38 -20 30z"/>
<path d="M3897 9670 c-38 -12 -57 -29 -57 -51 0 -25 21 -24 43 1 11 14 29 20
56 20 72 0 85 -58 16 -73 -96 -19 -112 -27 -124 -55 -15 -36 0 -75 36 -91 32
-15 57 -14 99 4 31 13 36 13 41 0 3 -8 11 -15 19 -15 11 0 14 22 14 106 0 58
-4 114 -10 124 -10 18 -60 41 -89 39 -9 0 -29 -5 -44 -9z"/>
<path d="M4376 9664 c-20 -11 -31 -13 -39 -5 -6 6 -17 11 -24 11 -10 0 -13
-30 -13 -130 0 -123 1 -130 20 -130 19 0 20 7 20 95 0 106 14 135 68 135 51 0
57 -11 62 -122 4 -90 7 -103 24 -106 17 -4 18 3 14 107 -3 94 -6 114 -23 131
-28 27 -74 33 -109 14z"/>
<path d="M5635 9669 c-31 -9 -55 -33 -55 -56 0 -19 17 -16 40 7 37 37 127 18
118 -26 -2 -15 -17 -21 -65 -30 -90 -16 -125 -51 -103 -104 20 -47 80 -63 134
-35 26 14 31 14 46 0 9 -8 20 -15 23 -15 13 0 7 214 -7 232 -25 34 -75 44
-131 27z"/>
<path d="M6105 9674 c-11 -3 -31 -21 -45 -41 -19 -28 -25 -49 -25 -94 0 -53 4
-62 33 -91 25 -26 40 -33 72 -33 45 0 93 31 98 64 4 28 -16 27 -40 -4 -25 -32
-75 -34 -107 -4 -20 19 -23 29 -19 82 3 43 10 63 23 73 28 20 71 17 94 -7 10
-11 27 -19 37 -17 16 3 14 7 -11 36 -30 32 -69 45 -110 36z"/>
<path d="M6871 9667 c-45 -23 -66 -63 -66 -128 1 -53 4 -63 33 -92 69 -69 174
-28 188 73 8 59 -14 113 -58 140 -38 23 -63 25 -97 7z m83 -39 c29 -13 42 -58
33 -115 -7 -42 -31 -62 -74 -63 -43 0 -73 38 -73 95 0 77 50 113 114 83z"/>
<path d="M8561 9668 c-46 -24 -66 -64 -66 -129 1 -53 4 -63 31 -90 21 -20 44
-32 70 -35 82 -11 145 87 115 179 -22 66 -96 103 -150 75z m98 -54 c49 -62 14
-164 -55 -164 -48 0 -67 22 -72 84 -3 41 0 56 18 79 29 37 80 38 109 1z"/>
<path d="M9024 9666 c-28 -13 -44 -33 -44 -57 0 -16 25 -10 43 11 11 13 29 20
51 20 51 0 66 -9 66 -40 0 -27 -3 -28 -60 -35 -101 -12 -151 -74 -100 -125 30
-30 68 -35 118 -18 37 14 44 14 49 2 3 -8 11 -14 19 -14 11 0 14 21 14 100 0
54 -5 110 -11 123 -20 45 -84 59 -145 33z"/>
<path d="M11235 9669 c-31 -9 -55 -33 -55 -56 0 -19 17 -16 40 7 37 37 127 18
118 -26 -2 -15 -17 -21 -65 -30 -90 -16 -125 -51 -103 -104 20 -47 80 -63 134
-35 26 14 31 14 46 0 9 -8 20 -15 23 -15 13 0 7 214 -7 232 -25 34 -75 44
-131 27z"/>
<path d="M11730 9673 c-8 -3 -23 -12 -32 -21 -16 -14 -18 -13 -18 1 0 10 -8
17 -20 17 -19 0 -20 -7 -20 -130 0 -123 1 -130 20 -130 18 0 20 7 20 88 0 48
3 97 6 109 7 24 50 39 84 28 18 -6 20 -15 20 -116 0 -102 1 -109 20 -109 19 0
20 7 20 93 0 106 13 137 59 137 45 0 51 -15 51 -127 0 -96 1 -103 20 -103 19
0 20 7 20 95 0 114 -15 159 -55 169 -29 7 -85 -10 -85 -25 0 -5 -7 -9 -15 -9
-8 0 -15 4 -15 8 0 9 -45 33 -58 31 -4 0 -14 -3 -22 -6z"/>
<path d="M12292 9660 c-70 -43 -81 -156 -22 -215 26 -25 38 -30 81 -30 43 0
54 4 75 28 13 15 24 32 24 38 0 16 -29 10 -50 -11 -40 -40 -130 -10 -130 43 0
15 13 17 95 17 106 0 111 4 81 73 -29 69 -95 94 -154 57z"/>
<path d="M4760 9575 c0 -52 5 -105 11 -119 22 -47 98 -56 142 -18 16 14 17 13
17 -7 0 -16 5 -21 18 -19 15 3 17 19 20 131 2 122 2 127 -18 127 -19 0 -20 -6
-20 -88 0 -107 -13 -132 -69 -132 -55 0 -61 11 -61 122 0 91 -1 98 -20 98 -19
0 -20 -7 -20 -95z"/>
</g>
</svg>
