<?xml version="1.0" encoding="utf-8"?>
<!-- Generator: Adobe Illustrator 24.2.3, SVG Export Plug-In . SVG Version: 6.00 Build 0)  -->
<svg version="1.1" id="Layer_1" xmlns="http://www.w3.org/2000/svg" xmlns:xlink="http://www.w3.org/1999/xlink" x="0px" y="0px"
	 viewBox="0 0 595.28 841.89" style="enable-background:new 0 0 595.28 841.89;" xml:space="preserve">
<style type="text/css">
	.st0{fill:#F79228;}
	.st1{fill:#EA3E60;}
	.st2{fill:#00AD95;}
	.st3{fill:#005A6E;}
	.st4{font-family:'Modern-Regular';}
	.st5{font-size:81.202px;}
	.st6{fill:#00838F;}
	.st7{font-size:18.0449px;}
	.st8{letter-spacing:6;}
</style>
<g>
	<path class="st0" d="M417.53,248.7c-0.11-0.47-0.7-0.65-1.07-0.33c-0.07,0.06-0.15,0.1-0.24,0.13
		c-13.34,4.07-27.78,9.35-40.52,14.3c12.18,3.76,20.86,14.62,21.11,28.12c0.31,17.19-13.56,31.35-30.63,31.26
		c-15.65-0.08-30.16-14.33-30.61-30.04c-0.15-5.11,1.17-10.04,3.54-14.41c-6.33-1.37-39.96,13.44-43.54,15.03
		c-0.19,0.09-0.33,0.26-0.37,0.46l-8.39,45.3c-0.01,0.06-0.03,0.12-0.06,0.18c-4.27,8.31-13.74,4.86-15.09,4.31
		c-0.11-0.04-0.2-0.11-0.27-0.2c-0.04-0.04-0.07-0.08-0.11-0.13c-0.13-0.62-0.23-1.26-0.36-1.87c-0.1-0.46,0.33-0.67,0.6-0.92
		c0.96-0.89,1.94-1.76,2.89-2.66c1.79-1.69,2.04-3.73,0.66-5.73c-1.07-1.56-2.16-3.1-3.28-4.62c-1.44-1.96-3.44-2.4-5.63-1.26
		c-1.12,0.58-2.24,1.15-3.32,1.81c-0.67,0.41-1.14,0.26-1.83-0.05c-2.12-0.98-3.12-2.39-2.44-4.75c0.09-0.31-0.05-0.68,0-1.01
		c0.35-2.27-0.47-3.96-2.46-5.1c-2.58-0.44-5.16-0.88-7.75-1.31c-2.25,0.42-3.58,1.75-4,4.01c-0.09,0.47-0.31,0.91-0.45,1.38
		c-0.26,0.87-0.24,2.07-0.98,2.48c-1.02,0.56-2.3,0.66-3.48,0.92c-0.46,0.1-0.67-0.33-0.92-0.6c-0.93-0.99-1.82-2.01-2.76-2.99
		c-1.65-1.71-3.67-1.91-5.62-0.56c-1.6,1.1-3.18,2.21-4.74,3.37c-1.75,1.3-2.24,3.33-1.28,5.28c0.6,1.22,1.24,2.41,1.93,3.58
		c0.4,0.67,0.27,1.14-0.05,1.83c-0.98,2.12-2.38,3.07-4.76,2.46c-0.82-0.21-1.73-0.08-2.6-0.04c-1.69,0.07-2.66,1.19-3.51,2.47
		c-0.44,2.58-0.88,5.16-1.31,7.75c0.42,2.25,1.75,3.58,4.01,4c0.47,0.09,0.91,0.32,1.38,0.45c0.87,0.25,2.07,0.24,2.48,0.98
		c0.57,1.02,0.66,2.3,0.92,3.48c0.1,0.46-0.33,0.67-0.6,0.92c-0.99,0.93-2.01,1.82-2.99,2.76c-1.7,1.64-1.91,3.67-0.56,5.62
		c1.1,1.6,2.22,3.18,3.37,4.74c1.31,1.76,3.31,2.24,5.28,1.27c1.22-0.6,2.41-1.24,3.58-1.93c0.67-0.39,1.13-0.28,1.83,0.05
		c2.12,0.98,3.11,2.4,2.44,4.76c-0.09,0.31,0.05,0.68,0,1.01c-0.35,2.27,0.48,3.96,2.46,5.1c2.58,0.44,5.16,0.88,7.75,1.31
		c2.25-0.42,3.58-1.75,4-4.01c0.09-0.47,0.31-0.91,0.45-1.38c0.26-0.87,0.24-2.07,0.98-2.48c1.02-0.56,2.3-0.65,3.48-0.91
		c0.46-0.1,0.67,0.32,0.93,0.6c0.93,0.99,1.82,2.02,2.76,2.99c1.64,1.7,3.67,1.9,5.63,0.56c1.6-1.1,3.18-2.21,4.74-3.37
		c1.75-1.3,2.24-3.33,1.27-5.28c-0.6-1.22-1.24-2.41-1.93-3.58c-0.22-0.37-0.27-0.68-0.23-1c24.77-5.5,7.86,45.67,6.59,49.44
		c-0.05,0.14-0.05,0.3,0.02,0.43c2.37,4.37,33.86,0.18,34.08,0.13c55.87-11.04,79.89-38.12,80.08-38.32
		C434.06,329.16,419.68,258.06,417.53,248.7z M246.98,361.53c-7.78,0-14.09-6.31-14.09-14.09c0-7.78,6.31-14.09,14.09-14.09
		c7.78,0,14.09,6.31,14.09,14.09C261.07,355.22,254.76,361.53,246.98,361.53z"/>
	<path class="st1" d="M424.15,175.57c-14.5,3.42-27.88,1.64-40.89-1.52c-130.77-44.36-190.65,30.04-190.65,30.04
		c-0.37,0.33-0.23,0.9,0.25,1.05c0.09,0.03,0.17,0.07,0.23,0.13c18.43,15.66,27.78,21.54,32.46,23.68c-1.25-0.99-2.5-1.97-3.74-2.97
		c-7.29-5.83-6.53-13.94,2-17.82c18.92-8.61,37.91-17.05,57-25.27c8.93-3.85,14.88,0.81,13.18,10.39
		c-3.62,20.37-7.43,40.71-11.42,61.01c-1.89,9.6-9.62,12.15-17.33,6.08c-1.21-0.95-2.42-1.92-3.63-2.87
		c8,7.97,29.58,22.24,32.76,24.32c0.25,0.17,0.56,0.2,0.85,0.09l44.85-16.15c0.09-0.02,0.19-0.04,0.28-0.06
		c7.06-0.51,9.86,4.49,10.93,7.73c-5.04,4.57-8.21,11.1-8.02,18.05c0.36,12.5,11.9,23.83,24.34,23.89
		c13.58,0.07,24.61-11.19,24.36-24.86c-0.22-12.4-9.39-22.01-21.47-23.33c-11.54-16.33,38.23-27.59,42.79-28.58
		c0.22-0.05,0.43-0.16,0.54-0.36c0.45-0.82,0.3-2.2-0.27-3.9c-1.69-18.12-9.65-31.7-20.51-41.88c0.88-1.03,2.7-1.6,5.62-1.98
		C408.36,189.23,417.05,185.12,424.15,175.57z"/>
	<g>
		<path class="st2" d="M279.7,334.85c0.16,0,0.32-0.05,0.44-0.18c0.17-0.18,0.34-0.43,0.51-0.7
			C280.34,334.27,280.02,334.56,279.7,334.85z"/>
		<path class="st2" d="M274.47,377.88c-0.28,0.31-0.58,0.62-0.94,0.89c-1.98,1.47-4,2.89-6.03,4.29c-2.49,1.71-5.08,1.45-7.16-0.71
			c-1.2-1.24-2.33-2.55-3.51-3.81c-0.32-0.35-0.59-0.89-1.18-0.76c-1.5,0.33-3.14,0.44-4.43,1.16c-0.94,0.52-0.92,2.05-1.24,3.16
			c-0.17,0.59-0.46,1.15-0.57,1.75c-0.54,2.87-2.23,4.56-5.09,5.1c-3.29-0.56-6.57-1.11-9.86-1.67c-2.51-1.46-3.58-3.6-3.12-6.49
			c0.07-0.42-0.11-0.89,0-1.29c0.86-3-0.41-4.8-3.1-6.06c-0.89-0.41-1.48-0.56-2.33-0.06c-1.48,0.88-3.01,1.69-4.56,2.45
			c-2.51,1.23-5.06,0.62-6.72-1.62c-1.47-1.98-2.89-4-4.29-6.03c-1.71-2.48-1.45-5.07,0.72-7.16c1.24-1.2,2.55-2.33,3.81-3.51
			c0.35-0.32,0.89-0.59,0.76-1.17c-0.33-1.5-0.45-3.14-1.17-4.43c-0.52-0.93-2.05-0.92-3.16-1.24c-0.59-0.17-1.15-0.46-1.75-0.57
			c-2.87-0.54-4.56-2.23-5.1-5.09c0.56-3.29,1.11-6.57,1.67-9.86c1.07-1.64,2.32-3.06,4.46-3.15c1.1-0.05,2.27-0.21,3.31,0.05
			c3.03,0.77,4.81-0.44,6.06-3.13c0.41-0.89,0.57-1.48,0.06-2.33c-0.88-1.48-1.7-3.01-2.46-4.55c-1.23-2.48-0.61-5.06,1.62-6.72
			c1.98-1.47,4-2.89,6.03-4.29c2.49-1.71,5.05-1.45,7.16,0.72c1.2,1.24,2.33,2.54,3.51,3.8c0.32,0.35,0.59,0.89,1.17,0.76
			c1.5-0.33,3.14-0.45,4.43-1.17c0.94-0.52,0.92-2.05,1.24-3.16c0.17-0.59,0.46-1.15,0.57-1.75c0.54-2.87,2.23-4.56,5.09-5.1
			c3.29,0.56,6.57,1.11,9.86,1.67c2.52,1.45,3.57,3.61,3.12,6.49c-0.06,0.42,0.11,0.89,0,1.29c-0.86,3.01,0.41,4.81,3.11,6.05
			c0.88,0.41,1.48,0.59,2.33,0.07c1.37-0.83,2.8-1.56,4.22-2.3c2.78-1.44,5.34-0.88,7.16,1.6c1.42,1.94,2.82,3.9,4.18,5.88
			c0.26,0.38,0.46,0.75,0.63,1.13c2.74-11.95,4.48-33.19,4.7-36.05c0.02-0.21-0.07-0.4-0.24-0.53l-37.26-29.1
			c-0.05-0.04-0.1-0.09-0.13-0.14c-5.52-7.64,2.31-13.87,3.43-14.7c0.09-0.06,0.18-0.1,0.29-0.11c0.71-0.1,1.36-0.22,2.04-0.33
			c2.5,1.98,4.99,3.96,7.5,5.93c5.77,4.54,11.55,2.63,12.96-4.55c0.92-4.68,1.81-9.38,2.7-14.07c0.31-0.94,0.49-1.89,0.55-2.84
			c1.83-9.67,3.63-19.35,5.35-29.04c1.23-6.91-3.11-10.39-9.55-7.61c-14.4,6.2-28.73,12.57-43,19.06c-6.39,2.9-6.95,8.97-1.5,13.33
			c2.24,1.79,4.5,3.57,6.75,5.35c-5.96,26.24-45.86-14.3-48.72-17.25c-0.11-0.11-0.25-0.17-0.39-0.19
			c-2.79-0.48-15.99,23.93-17.4,27.1c-0.09,0.21,0.02,0.01-0.09,0.21c-22.52,40.97-3.14,87.85-2.54,89.09
			c27.96,57.54,90.51,80.96,99.97,83.7c0.48,0.14,0.93-0.27,0.83-0.73c-0.02-0.08-0.02-0.17,0-0.26
			C273.24,394.41,274.4,383.82,274.47,377.88z"/>
	</g>
	<text transform="matrix(1 0 0 1 137.584 479.5771)" class="st3 st4 st5">ENIGMA</text>
	<text transform="matrix(1 0 0 1 145.2852 502.7344)" class="st6 st4 st7 st8">Manufactor Board Game</text>
</g>
</svg>
